<?xml version="1.0" standalone="no"?>
<!DOCTYPE svg PUBLIC "-//W3C//DTD SVG 20010904//EN"
 "http://www.w3.org/TR/2001/REC-SVG-20010904/DTD/svg10.dtd">
<svg version="1.0" xmlns="http://www.w3.org/2000/svg"
 width="400.000000pt" height="400.000000pt" viewBox="0 0 400.000000 400.000000"
 preserveAspectRatio="xMidYMid meet">

<g transform="translate(0.000000,400.000000) scale(0.100000,-0.100000)"
fill="#000000" stroke="none">
<path d="M2541 3434 c-21 -15 -45 -16 -225 -9 -217 9 -219 9 -594 2 -140 -3
-256 -8 -259 -11 -4 -3 -21 -6 -40 -6 -31 0 -33 -2 -33 -36 0 -25 -17 -67 -55
-137 -72 -130 -85 -172 -85 -261 0 -64 2 -74 17 -72 25 2 44 -58 36 -114 -3
-25 -5 -54 -5 -65 1 -14 -1 -16 -7 -6 -6 9 -11 10 -15 2 -4 -6 -12 -9 -17 -6
-6 4 -8 -374 -7 -992 l3 -998 40 -20 c23 -11 51 -28 65 -37 13 -9 27 -15 32
-12 5 3 8 2 7 -3 -5 -30 42 -93 69 -93 14 1 13 3 -3 12 -25 14 -35 29 -28 41
3 4 -3 15 -13 22 -17 13 -13 15 41 16 94 3 219 -2 339 -13 137 -12 227 -14
286 -5 25 4 151 11 280 17 129 6 242 12 250 13 36 7 122 51 130 68 6 11 10
454 10 1174 0 1022 -2 1160 -16 1193 -8 20 -42 85 -75 144 -57 100 -60 110
-54 153 6 37 4 45 -8 45 -8 0 -21 2 -29 5 -7 3 -24 -2 -37 -11z m-551 -46 c1
-47 50 -80 72 -49 7 10 23 21 36 25 12 4 22 13 22 21 0 22 49 27 194 19 123
-6 142 -9 162 -28 12 -11 38 -33 57 -48 40 -31 140 -211 153 -277 6 -28 5 -28
-45 -33 -41 -4 -56 -11 -76 -34 -31 -35 -57 -84 -45 -84 5 0 10 6 13 13 3 6 3
-25 2 -70 -3 -75 -1 -87 26 -135 16 -29 29 -50 29 -46 0 4 14 2 30 -4 54 -18
75 -74 76 -203 1 -67 7 -121 15 -139 11 -24 11 -32 -4 -58 -9 -16 -17 -37 -17
-46 0 -8 -8 -24 -17 -35 -10 -11 -12 -17 -4 -12 10 6 12 3 7 -13 -9 -28 10
-37 39 -18 34 22 35 21 35 -24 0 -32 -4 -40 -19 -40 -10 0 -24 7 -31 15 -7 8
-15 15 -19 15 -13 0 -4 -57 16 -96 35 -65 54 -156 52 -244 -2 -81 -19 -126
-19 -51 0 65 -22 45 -42 -39 -26 -106 -64 -175 -134 -247 -59 -61 -145 -112
-189 -114 l-20 0 20 -9 c33 -14 125 -11 160 6 48 23 132 115 160 176 13 29 24
46 24 38 0 -8 -8 -34 -19 -58 -18 -41 -20 -66 -19 -365 0 -192 -3 -333 -9
-348 -12 -30 -29 -39 -87 -45 -22 -2 -89 -9 -150 -16 -172 -19 -352 -9 -356
21 0 3 -3 15 -5 26 -3 11 -5 29 -5 40 6 140 4 768 -2 752 -5 -12 -6 -35 -3
-51 8 -38 -8 -56 -53 -57 -20 -1 -27 -4 -16 -6 21 -4 22 -24 15 -293 -1 -25
-1 -123 0 -219 0 -139 -3 -178 -14 -189 -23 -23 -195 -38 -344 -30 -134 7
-238 23 -247 38 -5 8 -15 520 -16 868 0 205 -1 215 -26 268 -41 90 -64 221
-70 405 -5 151 -4 173 16 237 12 39 26 74 31 77 12 7 -5 44 -29 62 -10 7 -11
12 -4 13 7 0 10 11 7 28 l-4 27 15 -25 c11 -19 14 -21 15 -7 0 9 5 17 10 17 7
0 8 -13 5 -34 -9 -44 6 -52 36 -18 22 25 22 25 2 8 -23 -19 -23 -19 -23 2 0
11 5 24 10 27 6 4 8 10 5 15 -3 5 -1 11 4 14 5 4 9 58 9 122 -1 89 2 118 13
126 12 8 12 9 -1 5 -9 -2 -17 -20 -20 -43 -5 -35 -7 -36 -14 -16 -4 13 -5 35
-2 50 4 15 3 23 -1 17 -17 -21 -42 -16 -49 10 -9 35 2 59 24 50 12 -4 14 -3 6
5 -8 8 -4 24 13 60 13 27 28 52 33 55 6 3 10 15 10 25 0 10 3 20 8 22 8 4 42
74 42 89 0 17 38 95 52 107 16 13 88 17 321 20 l167 2 0 -22z m587 -468 c5
-19 6 -19 22 1 16 21 18 21 35 4 12 -13 20 -15 25 -7 4 6 20 9 36 7 17 -2 33
-4 38 -4 4 -1 7 -13 7 -28 -1 -16 0 -37 2 -48 2 -12 -4 -21 -16 -23 -16 -4
-18 0 -13 29 l6 34 -15 -32 c-15 -36 -23 -40 -42 -21 -9 10 -15 9 -27 -2 -15
-16 -16 -16 70 -20 31 -2 35 -5 35 -30 0 -28 0 -29 -63 -27 l-63 2 5 -30 c4
-25 6 -27 9 -7 3 20 9 22 58 22 53 0 54 0 54 -29 l0 -30 -70 1 c-44 1 -70 5
-70 12 0 6 -5 4 -11 -4 -8 -11 -9 -5 -7 26 2 30 0 40 -9 37 -9 -4 -13 6 -13
31 0 30 3 36 18 34 9 -2 20 -7 24 -13 5 -6 8 -4 8 5 -1 8 -7 24 -15 34 -13 17
-15 18 -15 3 0 -9 -4 -17 -10 -17 -5 0 -10 18 -10 39 0 22 -5 43 -10 46 -12 7
-4 25 12 25 5 0 12 -9 15 -20z m153 -714 c0 -33 -32 -87 -45 -75 -3 4 -1 17 4
30 5 13 12 36 15 52 9 38 26 34 26 -7z m-7 -651 c-3 -9 -8 -14 -10 -11 -3 3
-2 9 2 15 9 16 15 13 8 -4z"/>
<path d="M2003 3033 c15 -2 37 -2 50 0 12 2 0 4 -28 4 -27 0 -38 -2 -22 -4z"/>
<path d="M2098 3023 c6 -2 18 -2 25 0 6 3 1 5 -13 5 -14 0 -19 -2 -12 -5z"/>
<path d="M1330 2989 c0 -5 5 -7 10 -4 6 3 10 8 10 11 0 2 -4 4 -10 4 -5 0 -10
-5 -10 -11z"/>
<path d="M1978 2953 c25 -5 30 -28 6 -37 -9 -3 -29 -6 -46 -6 -23 0 -29 -4
-24 -16 4 -12 1 -14 -14 -9 -11 4 -20 2 -20 -4 0 -6 4 -11 10 -11 6 0 6 -9 0
-24 -5 -13 -6 -27 -3 -30 4 -3 -2 -15 -12 -26 -14 -16 -19 -40 -21 -110 -2
-64 1 -90 9 -90 7 0 38 13 69 29 58 30 58 30 63 8 11 -50 9 -73 -5 -85 -8 -7
5 -2 30 10 l45 23 -2 63 -1 64 36 -4 c21 -3 46 -9 56 -13 13 -6 17 -5 13 2 -4
6 -9 28 -13 49 -6 39 -24 73 -57 111 -10 11 -25 38 -32 60 -13 37 -13 38 13
44 15 4 -6 7 -48 6 -41 0 -65 -2 -52 -4z"/>
<path d="M2128 2943 c7 -3 16 -2 19 1 4 3 -2 6 -13 5 -11 0 -14 -3 -6 -6z"/>
<path d="M2510 2790 c6 -11 13 -20 16 -20 2 0 0 9 -6 20 -6 11 -13 20 -16 20
-2 0 0 -9 6 -20z"/>
<path d="M2260 2745 c-7 -9 -11 -37 -8 -72 l3 -58 -57 -5 c-62 -6 -73 -12 -64
-35 7 -20 63 -44 121 -52 41 -5 46 -9 55 -42 26 -98 32 -144 34 -234 0 -60 5
-96 11 -94 16 5 54 66 66 106 6 20 13 89 15 155 4 111 5 120 29 142 18 16 25
33 25 58 0 43 -26 61 -76 53 -19 -3 -34 -2 -34 4 0 17 -72 89 -90 89 -10 0
-23 -7 -30 -15z"/>
<path d="M1404 2612 c-21 -16 -52 -53 -69 -83 -28 -51 -30 -61 -33 -189 -8
-267 49 -488 147 -574 17 -16 24 -17 34 -7 15 16 14 166 -3 275 l-12 78 37 73
c31 61 35 76 26 94 -14 26 -26 26 -73 2 l-37 -18 -9 36 c-8 34 -6 39 39 89 62
68 113 169 103 206 -13 54 -88 63 -150 18z"/>
<path d="M1829 2623 c-13 -16 -12 -17 4 -4 9 7 17 15 17 17 0 8 -8 3 -21 -13z"/>
<path d="M2524 2586 c-40 -40 -37 -56 7 -56 22 0 32 -6 39 -26 13 -34 14 -31
-20 -39 -83 -18 -119 -157 -58 -222 37 -39 97 -26 98 22 1 17 3 16 16 -7 12
-23 42 -48 56 -48 5 0 11 144 12 262 0 107 -18 141 -78 146 -31 3 -42 -2 -72
-32z m56 -195 c5 -11 10 -35 10 -55 l0 -34 -30 14 c-22 12 -30 22 -30 43 0 26
16 51 32 51 4 0 12 -9 18 -19z"/>
<path d="M2081 2594 c0 -11 3 -14 6 -6 3 7 2 16 -1 19 -3 4 -6 -2 -5 -13z"/>
<path d="M2016 2498 c-18 -18 -35 -39 -37 -47 -4 -12 -10 -11 -32 3 -36 24
-51 13 -41 -33 5 -20 9 -100 9 -178 0 -128 2 -144 21 -170 29 -39 84 -44 119
-9 33 33 33 86 0 196 -38 127 -32 171 27 185 63 16 87 -73 53 -195 -28 -100
-29 -132 -5 -162 15 -20 30 -28 54 -28 65 0 108 81 109 203 0 67 -5 86 -33
143 -42 86 -92 124 -163 124 -42 0 -54 -5 -81 -32z"/>
<path d="M1634 2470 c-32 -13 -84 -78 -84 -106 0 -21 3 -25 18 -19 56 24 78
13 92 -49 7 -33 6 -35 -33 -52 -134 -61 -149 -287 -24 -365 69 -43 167 7 167
85 0 43 -16 56 -84 65 -73 10 -89 25 -83 73 6 47 22 68 52 68 26 0 47 -22 65
-70 22 -55 39 -77 75 -94 70 -33 141 -11 102 32 -24 27 -37 90 -37 182 0 133
-31 209 -100 245 -31 16 -92 19 -126 5z"/>
<path d="M2631 2114 c0 -11 3 -14 6 -6 3 7 2 16 -1 19 -3 4 -6 -2 -5 -13z"/>
<path d="M2067 2025 c-15 -14 -37 -25 -47 -25 -17 0 -19 -8 -18 -79 0 -44 -3
-84 -6 -90 -4 -6 -2 -19 3 -29 6 -11 7 -22 4 -26 -9 -8 -10 -56 -2 -56 4 0 6
-15 5 -32 -1 -26 -6 -34 -26 -39 -17 -5 -7 -7 30 -8 l55 -1 -3 82 c-3 106 -2
248 1 269 4 26 29 50 44 45 8 -3 11 -1 8 4 -9 15 -17 12 -48 -15z"/>
<path d="M2716 1833 c-9 -57 -7 -70 9 -70 8 0 11 5 8 10 -3 6 -5 30 -4 54 2
53 -4 56 -13 6z"/>
<path d="M2340 1735 c0 -9 6 -12 15 -9 8 4 12 10 9 15 -8 14 -24 10 -24 -6z"/>
<path d="M1528 1675 c-16 -36 3 -75 37 -75 37 0 54 40 31 75 -21 32 -53 32
-68 0z m57 -15 c8 -24 -1 -40 -21 -40 -17 0 -28 24 -20 45 8 22 34 18 41 -5z"/>
<path d="M1612 1617 c-16 -43 -15 -58 2 -51 8 3 16 -4 21 -18 l8 -23 4 22 c2
12 11 27 19 33 18 16 18 35 -2 54 -24 24 -39 19 -52 -17z m48 -13 c0 -8 -7
-14 -15 -14 -15 0 -21 21 -9 33 10 9 24 -2 24 -19z"/>
<path d="M2315 1630 c-3 -5 -1 -10 4 -10 6 0 11 5 11 10 0 6 -2 10 -4 10 -3 0
-8 -4 -11 -10z"/>
<path d="M1692 1567 c-37 -38 -41 -51 -13 -42 13 4 27 -1 40 -14 11 -11 22
-17 25 -13 6 10 -5 102 -13 102 -4 0 -21 -15 -39 -33z"/>
<path d="M1776 1572 c-13 -21 -18 -92 -7 -92 6 0 11 11 11 25 0 36 14 31 29
-10 7 -19 16 -35 20 -35 10 0 31 92 23 104 -3 6 -11 -3 -18 -19 l-12 -29 -16
32 c-17 34 -22 37 -30 24z"/>
<path d="M1961 1575 c8 -7 119 -9 126 -2 3 4 -24 7 -62 7 -38 0 -66 -2 -64 -5z"/>
<path d="M1880 1540 c-38 -38 -13 -94 39 -88 20 2 27 9 29 31 3 23 0 27 -22
27 -14 0 -26 -4 -26 -10 0 -5 7 -10 15 -10 8 0 15 -4 15 -10 0 -15 -26 -12
-39 4 -20 24 -2 49 30 42 33 -6 39 8 10 24 -26 13 -28 13 -51 -10z"/>
<path d="M1972 1498 c3 -55 18 -69 56 -52 14 6 13 8 -7 13 -33 9 -38 28 -9 34
l23 4 -22 8 c-31 10 -29 25 2 25 14 0 25 5 25 10 0 6 -16 10 -36 10 l-35 0 3
-52z"/>
<path d="M2610 2880 c0 -11 5 -20 10 -20 6 0 10 9 10 20 0 11 -4 20 -10 20 -5
0 -10 -9 -10 -20z"/>
<path d="M2670 2875 c0 -15 4 -24 10 -20 6 3 10 12 10 20 0 8 -4 17 -10 20 -6
4 -10 -5 -10 -20z"/>
<path d="M1257 2866 c-4 -10 -1 -13 8 -9 8 3 12 9 9 14 -7 12 -11 11 -17 -5z"/>
<path d="M1257 2765 c3 -8 9 -12 14 -9 12 7 11 11 -5 17 -10 4 -13 1 -9 -8z"/>
<path d="M2575 624 c-16 -8 -22 -12 -12 -9 9 2 17 0 17 -5 0 -6 -8 -10 -17
-10 -14 0 -15 -2 -4 -9 9 -6 1 -13 -30 -24 -24 -8 -35 -16 -24 -16 31 -1 64
21 87 57 11 17 18 32 16 32 -1 -1 -16 -8 -33 -16z"/>
<path d="M1940 590 c18 -11 112 -11 104 1 -3 5 -31 9 -62 9 -39 0 -52 -3 -42
-10z"/>
<path d="M1968 523 c7 -3 16 -2 19 1 4 3 -2 6 -13 5 -11 0 -14 -3 -6 -6z"/>
</g>
</svg>
